<svg id="svg" version="1.1" xmlns="http://www.w3.org/2000/svg" xmlns:xlink="http://www.w3.org/1999/xlink" width="400" height="391.67013744273214" viewBox="0, 0, 400,391.67013744273214"><g id="svgg"><path id="path0" d="M139.559 78.310 C 121.870 87.079,106.142 99.838,93.792 115.437 L 92.852 116.625 98.218 122.614 C 101.169 125.908,103.683 128.725,103.804 128.875 C 103.994 129.109,103.934 129.271,103.374 130.032 C 97.370 138.199,91.484 149.890,88.034 160.500 C 72.223 209.117,90.764 261.800,133.833 290.641 C 135.529 291.776,136.941 292.771,136.972 292.851 C 137.002 292.931,136.761 294.066,136.437 295.373 C 135.272 300.067,133.543 309.104,133.720 309.566 C 133.914 310.071,144.064 314.959,149.333 317.085 C 152.958 318.548,161.092 321.333,161.739 321.333 C 161.859 321.333,161.921 320.086,161.930 317.458 C 161.968 306.937,165.686 296.812,172.062 289.872 C 172.421 289.480,172.686 289.133,172.649 289.101 C 172.613 289.069,169.733 287.942,166.250 286.596 C 162.767 285.250,159.867 284.097,159.806 284.033 C 159.635 283.855,167.794 264.076,168.014 264.131 C 168.119 264.158,171.214 265.366,174.894 266.817 C 178.573 268.268,185.717 271.084,190.770 273.075 L 199.956 276.696 215.936 270.360 C 224.725 266.876,231.969 264.076,232.033 264.138 C 232.170 264.271,240.167 283.745,240.167 283.947 C 240.167 284.023,237.373 285.129,233.958 286.404 C 230.544 287.679,227.720 288.746,227.684 288.775 C 227.648 288.803,227.892 289.147,228.227 289.538 C 235.164 297.643,238.558 306.742,238.576 317.292 C 238.581 320.025,238.638 321.166,238.769 321.167 C 239.512 321.167,249.088 317.756,252.887 316.138 C 257.864 314.018,266.060 309.965,266.805 309.255 C 267.148 308.929,265.616 300.626,264.089 294.533 L 263.533 292.316 266.292 290.472 C 319.450 254.939,333.442 183.371,297.420 131.258 L 295.820 128.944 296.384 128.347 C 296.695 128.019,298.959 125.500,301.416 122.750 C 303.873 120.000,306.134 117.485,306.441 117.160 L 306.998 116.571 305.470 114.660 C 294.678 101.167,280.935 89.575,265.802 81.201 C 262.276 79.249,257.662 76.966,257.426 77.057 C 257.315 77.099,255.552 80.010,253.507 83.525 C 251.463 87.041,249.648 90.154,249.474 90.444 L 249.157 90.971 247.620 90.300 C 217.458 77.139,180.393 77.242,151.668 90.567 C 150.526 91.097,151.125 91.870,146.424 83.792 C 144.250 80.056,142.411 77.000,142.336 77.000 C 142.262 77.000,141.012 77.589,139.559 78.310 M199.999 91.375 C 199.999 91.490,201.425 106.133,203.167 123.917 C 204.910 141.700,206.918 162.212,207.630 169.499 L 208.926 182.748 230.921 199.458 C 243.019 208.649,254.229 217.160,255.833 218.372 C 258.781 220.599,269.639 228.843,280.500 237.100 C 283.754 239.574,287.943 242.753,289.809 244.164 C 291.675 245.575,293.236 246.820,293.278 246.931 C 293.350 247.117,289.011 253.204,288.645 253.430 C 288.476 253.535,286.640 252.556,248.917 232.250 C 236.450 225.540,219.575 216.463,211.417 212.081 C 203.258 207.698,195.833 203.622,194.917 203.022 C 194.000 202.422,192.838 201.679,192.333 201.370 C 187.187 198.217,183.997 191.684,183.975 184.250 C 183.971 182.744,191.417 91.869,191.585 91.375 C 191.639 91.216,192.640 91.167,195.828 91.167 C 199.055 91.167,200.000 91.214,199.999 91.375 M214.960 92.344 C 284.988 102.134,326.187 175.194,297.236 238.249 C 295.948 241.055,296.072 240.965,295.368 239.605 C 294.224 237.392,291.780 233.849,289.233 230.712 L 288.797 230.174 289.793 227.462 C 296.349 209.626,297.273 188.450,292.239 171.417 L 291.944 170.417 291.574 172.500 C 286.450 201.397,256.595 217.922,239.037 201.580 C 223.138 186.782,228.239 155.136,248.836 140.795 L 249.250 140.507 248.500 139.816 C 243.461 135.176,231.869 128.630,224.917 126.498 C 224.003 126.217,224.066 126.361,223.674 123.667 C 223.480 122.337,223.148 120.362,222.935 119.278 L 222.549 117.305 223.130 117.414 C 224.253 117.625,229.610 119.485,232.190 120.560 C 241.197 124.313,248.424 128.878,256.380 135.837 L 257.176 136.534 258.713 136.099 C 263.447 134.758,269.984 134.696,273.306 135.960 C 273.944 136.203,269.522 131.434,266.177 128.271 C 253.703 116.477,237.969 108.139,221.171 104.421 C 219.660 104.087,218.415 103.799,218.403 103.782 C 218.392 103.764,217.817 102.587,217.126 101.167 C 215.474 97.772,213.615 94.746,211.623 92.208 C 211.388 91.910,212.048 91.936,214.960 92.344 M179.274 93.708 C 177.517 96.180,175.057 100.819,173.784 104.060 L 173.073 105.871 170.930 106.528 C 154.624 111.529,138.863 121.735,127.613 134.576 C 125.748 136.704,125.758 136.630,127.406 136.092 C 131.799 134.658,136.912 134.663,142.759 136.108 C 143.016 136.172,143.562 135.791,144.944 134.588 C 151.737 128.669,160.856 123.090,168.379 120.252 C 169.421 119.859,169.417 119.848,169.104 122.034 C 168.956 123.069,168.726 125.069,168.593 126.477 C 168.460 127.885,168.329 129.057,168.301 129.081 C 168.273 129.104,167.050 129.730,165.583 130.471 C 160.758 132.910,155.594 136.253,152.208 139.130 C 151.137 140.041,151.137 140.006,152.208 140.691 C 170.493 152.379,177.414 181.825,165.605 197.686 C 148.496 220.666,112.827 202.609,109.149 169.107 C 108.925 167.070,108.907 167.078,108.195 169.500 C 97.268 206.673,110.540 246.341,141.750 269.786 C 143.033 270.750,144.151 271.602,144.234 271.679 C 144.322 271.760,143.980 272.779,143.415 274.117 C 142.882 275.382,141.981 277.651,141.412 279.159 C 140.844 280.667,140.305 281.926,140.215 281.956 C 140.008 282.025,136.547 279.608,133.833 277.498 C 111.759 260.335,97.424 235.299,94.185 208.250 C 87.785 154.813,122.750 106.144,176.333 93.907 C 179.372 93.213,179.639 93.195,179.274 93.708 M126.604 209.750 C 130.137 226.692,139.316 241.658,152.702 252.299 C 153.802 253.173,154.442 253.791,154.369 253.908 C 154.303 254.012,153.681 254.957,152.987 256.007 C 152.292 257.057,151.401 258.462,151.007 259.128 C 150.080 260.698,150.172 260.678,148.782 259.612 C 132.324 246.991,120.763 227.646,117.910 207.955 L 117.795 207.161 121.938 207.205 L 126.082 207.250 126.604 209.750 M282.062 207.299 C 282.374 207.803,279.427 220.167,278.996 220.167 C 278.926 220.167,278.018 219.435,276.977 218.542 C 275.935 217.648,274.422 216.395,273.615 215.757 C 272.422 214.814,272.164 214.533,272.244 214.257 C 272.463 213.493,273.313 209.849,273.490 208.917 C 273.594 208.367,273.716 207.748,273.760 207.542 L 273.840 207.167 277.910 207.167 C 280.149 207.167,282.017 207.226,282.062 207.299 M255.540 248.721 C 257.030 249.392,258.775 250.156,259.417 250.419 C 260.058 250.682,260.616 250.922,260.657 250.953 C 260.948 251.172,252.114 259.132,250.555 260.055 C 250.432 260.127,250.127 259.783,249.733 259.127 C 249.388 258.553,248.396 257.011,247.528 255.700 C 246.661 254.388,246.018 253.258,246.100 253.188 C 246.183 253.117,247.037 252.418,248.000 251.634 C 248.963 250.850,250.387 249.603,251.167 248.862 C 252.871 247.242,252.297 247.260,255.540 248.721 M278.583 256.242 C 279.867 256.464,282.042 256.733,283.417 256.839 C 286.389 257.068,286.202 256.952,285.373 258.051 C 279.397 265.965,270.873 274.218,262.643 280.060 C 260.254 281.755,260.275 281.751,259.909 280.625 C 259.516 279.418,257.680 274.745,256.863 272.872 L 256.189 271.327 258.213 269.798 C 262.800 266.334,267.962 261.577,271.850 257.230 L 273.657 255.210 274.953 255.523 C 275.666 255.696,277.300 256.019,278.583 256.242 " stroke="none" fill="#fbb314" fill-rule="evenodd"></path><path id="path1" d="M107.562 54.111 C 93.008 63.136,78.008 75.987,67.881 88.108 L 67.178 88.949 76.187 98.850 C 81.141 104.295,85.286 108.845,85.397 108.960 C 85.558 109.127,85.982 108.711,87.462 106.933 C 100.137 91.707,116.952 78.496,134.708 69.812 C 135.327 69.509,135.833 69.222,135.833 69.173 C 135.833 69.093,111.161 53.386,110.243 52.880 C 109.912 52.698,109.638 52.824,107.562 54.111 M278.583 61.005 C 271.617 64.933,265.438 68.422,264.852 68.758 L 263.787 69.368 267.435 71.240 C 285.268 80.390,301.302 93.539,313.989 109.417 C 315.014 110.700,315.914 111.772,315.989 111.799 C 316.064 111.825,318.365 108.713,321.102 104.882 C 323.838 101.051,327.489 95.941,329.213 93.526 C 331.927 89.727,332.320 89.099,332.136 88.860 C 326.833 81.983,314.452 70.333,304.500 62.858 C 300.263 59.675,291.592 53.758,291.298 53.848 C 291.271 53.856,285.550 57.077,278.583 61.005 M193.750 64.443 C 175.163 65.557,158.721 69.473,143.963 76.301 L 142.510 76.974 146.185 83.279 C 148.206 86.746,150.041 89.897,150.263 90.279 L 150.666 90.975 152.208 90.305 C 182.493 77.139,217.575 77.100,247.471 90.199 C 248.787 90.776,249.057 90.845,249.241 90.649 C 249.395 90.484,255.282 80.458,257.269 76.978 C 257.441 76.676,247.209 72.616,242.076 70.950 C 226.935 66.033,208.540 63.557,193.750 64.443 M191.596 91.705 C 191.183 94.305,183.978 183.501,184.054 185.083 C 184.382 191.973,187.332 198.103,191.648 200.862 C 192.254 201.250,193.575 202.104,194.583 202.761 C 195.592 203.419,203.504 207.765,212.167 212.421 C 220.829 217.077,241.557 228.230,258.228 237.206 C 274.900 246.182,288.600 253.464,288.674 253.388 C 288.954 253.100,293.328 247.079,293.331 246.979 C 293.332 246.921,292.752 246.438,292.042 245.905 C 291.331 245.373,283.775 239.641,275.250 233.168 C 266.725 226.695,257.537 219.721,254.833 217.669 C 252.129 215.618,244.629 209.925,238.167 205.017 C 231.704 200.110,222.479 193.105,217.667 189.451 C 211.550 184.808,208.899 182.699,208.857 182.446 C 208.823 182.246,206.796 161.646,204.352 136.667 L 199.907 91.250 195.795 91.205 L 191.683 91.161 191.596 91.705 M212.636 93.523 C 214.253 95.679,215.814 98.293,217.267 101.280 L 218.499 103.809 219.458 104.001 C 240.296 108.174,258.081 118.622,273.380 135.679 C 294.872 159.641,301.396 196.952,289.559 228.203 L 288.820 230.156 290.213 231.876 C 292.022 234.108,293.669 236.504,294.917 238.716 C 296.123 240.855,295.984 240.879,297.159 238.323 C 312.860 204.164,308.508 164.064,285.828 133.917 C 268.333 110.661,241.133 95.136,212.525 92.077 L 211.466 91.963 212.636 93.523 M178.167 93.529 C 162.045 96.962,147.682 103.438,135.083 112.952 C 81.117 153.707,79.362 232.474,131.460 275.550 C 134.276 277.878,140.094 282.128,140.251 281.971 C 140.288 281.934,140.802 280.632,141.394 279.077 C 141.986 277.522,142.894 275.248,143.411 274.023 C 143.928 272.798,144.328 271.779,144.301 271.759 C 127.962 259.897,116.249 244.725,109.973 227.295 C 91.601 176.271,119.812 121.761,172.799 105.903 C 172.918 105.867,173.130 105.556,173.271 105.211 C 175.307 100.223,176.587 97.670,178.495 94.792 C 179.530 93.232,179.531 93.238,178.167 93.529 M301.667 122.526 C 298.779 125.745,296.315 128.541,296.191 128.738 C 295.983 129.069,296.067 129.242,297.246 130.924 C 333.641 182.793,319.388 255.588,265.953 290.750 C 264.699 291.575,263.672 292.340,263.670 292.450 C 263.668 292.559,263.968 293.872,264.337 295.366 C 265.051 298.260,266.282 304.274,266.753 307.167 C 266.910 308.129,267.063 308.944,267.094 308.977 C 267.295 309.198,275.934 303.652,279.917 300.745 C 334.660 260.792,349.983 186.777,315.457 129.083 C 313.437 125.709,307.240 116.653,306.962 116.669 C 306.937 116.671,304.554 119.306,301.667 122.526 M91.280 118.845 C 48.889 176.557,60.994 256.450,118.696 299.793 C 122.622 302.743,130.322 307.780,133.093 309.212 L 133.602 309.475 133.982 307.113 C 134.513 303.817,135.539 298.780,136.340 295.535 C 136.713 294.028,136.995 292.780,136.967 292.761 C 136.939 292.743,135.604 291.862,134.000 290.804 C 80.747 255.690,66.432 184.382,102.085 131.828 L 103.954 129.073 98.513 123.007 C 95.520 119.670,92.999 116.919,92.911 116.892 C 92.822 116.865,92.088 117.744,91.280 118.845 M222.668 117.458 C 222.668 117.527,222.847 118.521,223.066 119.667 C 223.285 120.813,223.596 122.688,223.757 123.833 C 224.103 126.283,223.990 126.133,226.000 126.831 C 243.681 132.974,259.118 146.745,267.496 163.848 L 268.847 166.605 272.715 165.620 C 274.843 165.078,276.606 164.614,276.633 164.587 C 276.751 164.474,274.162 159.093,272.887 156.799 C 262.585 138.271,245.233 124.219,224.980 118.000 C 222.580 117.263,222.666 117.283,222.668 117.458 M167.167 120.810 C 148.445 128.631,132.829 143.658,124.324 162.034 C 123.771 163.229,123.351 164.240,123.392 164.280 C 123.491 164.380,131.194 166.369,131.225 166.303 C 138.949 149.925,149.978 138.388,165.500 130.451 C 166.921 129.724,168.133 129.082,168.195 129.023 C 168.256 128.965,168.427 127.679,168.576 126.167 C 168.724 124.654,168.955 122.686,169.089 121.793 C 169.375 119.894,169.368 119.999,169.208 120.005 C 169.140 120.007,168.221 120.370,167.167 120.810 M122.468 180.939 C 120.148 183.269,118.233 185.305,118.211 185.463 C 118.190 185.621,119.127 187.582,120.295 189.822 L 122.417 193.894 134.226 198.113 C 140.721 200.434,146.159 202.333,146.310 202.333 C 146.541 202.332,158.796 194.429,159.234 193.997 C 159.343 193.890,155.348 181.550,155.096 181.215 C 155.081 181.196,148.810 180.203,141.160 179.007 C 133.509 177.812,127.123 176.804,126.968 176.768 C 126.778 176.724,125.323 178.072,122.468 180.939 M260.172 178.952 C 252.429 180.174,246.044 181.228,245.983 181.295 C 245.707 181.598,241.638 193.871,241.770 194.002 C 241.898 194.130,244.481 195.832,252.515 201.086 L 254.613 202.458 263.098 199.431 C 267.765 197.766,273.171 195.844,275.111 195.160 L 278.639 193.917 280.811 189.666 L 282.984 185.415 278.700 181.123 C 276.344 178.762,274.379 176.808,274.333 176.781 C 274.287 176.753,267.915 177.730,260.172 178.952 M117.926 207.958 C 121.514 228.670,131.500 245.702,147.643 258.638 C 150.308 260.773,149.973 260.734,151.006 259.036 C 151.492 258.237,152.439 256.744,153.111 255.719 C 154.596 253.453,154.680 253.873,152.388 252.083 C 139.319 241.877,129.071 224.759,126.318 208.542 L 126.113 207.333 121.966 207.333 L 117.818 207.333 117.926 207.958 M273.666 208.292 C 273.561 208.819,273.204 210.442,272.873 211.898 L 272.270 214.546 272.772 214.981 C 273.049 215.221,274.311 216.279,275.578 217.333 C 276.845 218.387,278.133 219.462,278.440 219.720 L 278.999 220.190 279.180 219.720 C 279.888 217.875,281.595 210.725,281.927 208.208 L 282.043 207.333 277.950 207.333 L 273.857 207.333 273.666 208.292 M54.552 211.535 C 54.099 212.111,52.379 214.308,50.730 216.417 C 49.080 218.525,44.416 224.469,40.365 229.626 C 36.314 234.783,33.000 239.119,33.000 239.261 C 33.000 240.751,37.393 253.818,40.020 260.143 C 56.784 300.501,89.669 333.723,129.982 351.026 C 132.253 352.001,132.071 352.128,131.853 349.720 C 131.195 342.466,131.222 333.798,131.934 323.740 L 132.041 322.231 129.347 320.783 C 89.061 299.133,61.293 258.644,55.829 213.583 C 55.629 211.933,55.445 210.561,55.420 210.535 C 55.395 210.508,55.005 210.958,54.552 211.535 M343.833 211.572 C 343.833 211.703,343.681 212.997,343.495 214.447 C 337.755 259.119,311.028 298.044,270.710 320.452 L 268.135 321.884 268.231 322.733 C 268.812 327.862,268.963 344.662,268.469 349.167 C 268.333 350.404,268.235 351.436,268.252 351.460 C 268.320 351.560,273.524 349.173,277.250 347.334 C 321.041 325.720,353.952 285.993,366.252 239.899 L 366.988 237.142 355.536 224.249 C 344.272 211.569,343.833 211.094,343.833 211.572 M250.997 249.100 C 250.036 249.984,248.516 251.303,247.619 252.033 L 245.989 253.359 246.750 254.425 C 247.168 255.011,248.113 256.450,248.849 257.621 C 249.585 258.792,250.255 259.819,250.338 259.903 C 250.698 260.268,260.500 251.770,260.500 251.092 C 260.500 250.975,260.144 250.744,259.708 250.579 C 259.273 250.415,257.604 249.687,256.000 248.962 C 254.396 248.238,253.007 247.611,252.914 247.569 C 252.820 247.528,251.958 248.217,250.997 249.100 M272.160 256.952 C 268.634 261.001,262.917 266.309,258.464 269.669 C 255.970 271.552,256.094 270.987,257.463 274.204 C 258.098 275.696,258.985 277.947,259.434 279.205 C 259.883 280.464,260.316 281.495,260.398 281.497 C 261.353 281.516,271.060 273.548,275.704 268.934 C 279.112 265.547,286.000 257.644,286.000 257.120 C 286.000 257.082,285.119 257.001,284.042 256.939 C 281.657 256.804,278.214 256.309,275.753 255.750 C 274.746 255.521,273.843 255.333,273.747 255.333 C 273.650 255.333,272.936 256.062,272.160 256.952 M167.679 264.542 C 167.599 264.748,165.801 269.147,163.683 274.318 C 161.566 279.489,159.834 283.801,159.835 283.901 C 159.835 284.001,162.742 285.199,166.293 286.563 C 187.810 294.827,193.598 297.066,193.722 297.174 C 193.948 297.370,192.893 299.775,191.934 301.245 C 189.139 305.533,184.600 308.086,179.414 308.289 L 177.244 308.374 173.855 313.031 C 171.991 315.593,170.505 317.727,170.552 317.774 C 171.043 318.265,175.901 318.998,178.667 318.998 C 186.610 318.998,193.752 315.749,198.965 309.763 L 199.825 308.777 200.522 309.597 C 207.410 317.693,218.713 320.973,228.895 317.828 C 229.503 317.640,230.000 317.450,230.000 317.406 C 230.000 317.361,228.516 315.293,226.701 312.810 L 223.403 308.296 221.316 308.322 C 215.518 308.397,210.473 305.679,207.494 300.876 C 206.622 299.470,205.652 297.126,205.857 296.921 C 205.940 296.838,216.333 292.933,234.083 286.316 C 237.292 285.120,239.972 284.088,240.039 284.023 C 240.106 283.958,238.619 280.158,236.734 275.578 C 234.850 270.997,233.032 266.556,232.695 265.709 C 232.359 264.861,231.990 264.167,231.875 264.167 C 231.761 264.167,228.948 265.248,225.625 266.570 C 210.832 272.456,200.128 276.667,199.958 276.667 C 199.857 276.667,195.982 275.173,191.346 273.348 C 172.371 265.877,168.008 264.167,167.919 264.167 C 167.867 264.167,167.760 264.335,167.679 264.542 M246.500 331.110 C 216.975 340.808,185.974 341.165,156.217 332.151 C 154.732 331.701,153.481 331.333,153.437 331.333 C 153.139 331.333,155.762 339.450,157.370 343.500 C 160.574 351.574,166.885 362.478,168.493 362.721 C 168.818 362.770,170.508 363.036,172.250 363.312 C 191.009 366.287,210.234 366.177,229.167 362.987 C 234.032 362.168,233.484 362.388,234.641 360.782 C 239.645 353.828,244.166 344.088,247.096 333.954 C 247.593 332.233,248.000 330.790,248.000 330.746 C 248.000 330.629,247.869 330.660,246.500 331.110 " stroke="none" fill="#343434" fill-rule="evenodd"></path><path id="path2" d="M189.333 0.179 C 148.386 2.358,111.364 15.572,79.000 39.560 C 56.884 55.952,36.473 79.125,24.296 101.667 C 21.967 105.977,21.238 107.359,20.207 109.419 C 9.673 130.454,2.399 155.746,0.836 176.768 C 0.741 178.041,0.589 180.021,0.498 181.167 C -6.601 270.482,49.518 353.272,136.453 381.732 C 179.825 395.931,228.471 395.005,270.818 379.174 C 361.129 345.412,413.831 254.378,396.981 161.250 C 382.037 78.657,314.230 14.103,229.716 2.010 C 223.048 1.056,218.136 0.595,210.083 0.166 C 206.611 -0.019,192.885 -0.010,189.333 0.179 M122.530 60.513 C 129.343 64.828,135.208 68.549,135.565 68.781 L 136.213 69.202 132.398 71.156 C 115.137 79.999,99.696 92.401,87.184 107.472 C 85.676 109.289,85.607 109.347,85.322 109.054 C 83.668 107.349,67.167 89.046,67.167 88.916 C 67.167 88.672,69.678 85.814,73.287 81.952 C 82.411 72.188,94.188 62.467,105.833 55.087 C 107.529 54.012,109.067 53.032,109.250 52.908 C 109.433 52.785,109.710 52.680,109.864 52.675 C 110.018 52.671,115.718 56.198,122.530 60.513 M294.322 55.586 C 307.247 63.905,319.410 74.304,329.583 85.735 C 330.958 87.280,332.172 88.672,332.282 88.828 C 332.452 89.072,331.933 89.882,328.692 94.431 C 326.608 97.357,323.039 102.375,320.760 105.583 C 318.482 108.792,316.471 111.580,316.291 111.780 L 315.965 112.143 314.705 110.530 C 302.045 94.322,285.428 80.630,266.643 70.927 C 264.544 69.843,263.702 69.329,263.858 69.228 C 265.042 68.462,291.147 53.846,291.341 53.840 C 291.483 53.836,292.824 54.622,294.322 55.586 M205.417 64.337 C 297.242 68.192,357.929 158.934,324.916 243.015 C 314.214 270.270,292.097 295.632,267.333 309.045 C 259.330 313.380,254.267 315.747,247.996 318.084 C 245.270 319.100,239.084 321.167,238.769 321.167 C 238.638 321.166,238.581 320.025,238.576 317.292 C 238.558 306.978,235.325 298.049,228.770 290.208 C 227.514 288.705,228.335 288.583,220.818 291.391 C 217.297 292.706,212.518 294.487,210.197 295.349 L 205.977 296.917 206.074 297.417 C 206.127 297.692,206.465 298.532,206.824 299.284 C 209.560 305.009,214.661 308.145,221.365 308.224 L 223.554 308.250 226.853 312.750 C 230.538 317.777,230.389 317.447,229.157 317.868 C 219.502 321.169,206.991 317.719,200.742 310.034 C 199.734 308.795,199.943 308.779,198.753 310.183 C 193.454 316.438,184.256 319.961,175.750 318.993 C 174.011 318.796,170.676 318.076,170.449 317.849 C 170.354 317.754,171.632 315.857,173.772 312.917 L 177.248 308.139 177.916 308.211 C 182.893 308.749,188.786 305.779,191.771 301.230 C 192.544 300.052,193.790 297.396,193.637 297.251 C 193.607 297.223,188.896 295.396,183.168 293.191 L 172.753 289.181 172.280 289.632 C 166.291 295.349,161.968 306.973,161.930 317.458 C 161.921 320.086,161.859 321.333,161.739 321.333 C 161.641 321.333,160.480 320.992,159.160 320.575 C 98.659 301.476,60.234 244.093,66.591 182.333 C 73.694 113.322,134.813 61.372,205.417 64.337 M130.945 135.261 C 129.404 135.501,127.400 136.017,126.423 136.425 C 125.304 136.892,120.356 143.640,117.122 149.107 C 114.140 154.149,110.988 161.013,109.331 166.072 C 108.309 169.193,110.602 178.900,113.924 185.515 C 125.030 207.629,149.578 214.983,163.393 200.334 C 177.913 184.938,172.120 154.035,152.210 140.687 L 151.170 139.990 150.377 140.703 C 142.490 147.795,137.292 154.496,132.890 163.250 C 132.014 164.992,131.275 166.441,131.248 166.470 C 131.192 166.530,123.292 164.514,123.193 164.415 C 123.088 164.310,125.139 159.905,126.254 157.838 C 130.041 150.819,134.817 144.383,140.468 138.685 C 143.109 136.022,143.072 136.159,141.265 135.747 C 137.937 134.987,133.922 134.798,130.945 135.261 M263.083 135.172 C 261.373 135.435,259.553 135.828,258.408 136.181 L 257.309 136.521 259.613 138.888 C 265.018 144.442,269.056 149.771,272.679 156.133 C 274.382 159.122,276.919 164.484,276.720 164.673 C 276.306 165.068,268.806 166.785,268.654 166.520 C 268.569 166.372,267.910 165.050,267.190 163.583 C 263.330 155.721,257.732 148.226,251.329 142.350 L 249.314 140.501 248.318 141.177 C 230.948 152.973,224.243 180.319,234.764 196.460 C 248.659 217.778,280.014 208.032,289.859 179.333 C 290.761 176.704,291.831 171.943,291.833 170.553 C 291.835 168.443,287.309 157.197,284.223 151.644 C 281.017 145.876,274.865 137.000,273.444 136.092 C 272.235 135.319,265.831 134.751,263.083 135.172 M141.166 178.841 C 148.820 180.038,155.130 181.069,155.187 181.133 C 155.328 181.291,159.501 193.640,159.497 193.888 C 159.493 194.150,146.545 202.597,146.242 202.535 C 145.571 202.398,122.554 194.112,122.381 193.945 C 122.063 193.637,117.985 185.612,118.037 185.396 C 118.153 184.912,126.638 176.524,126.940 176.594 C 127.111 176.634,133.512 177.645,141.166 178.841 M278.893 181.097 L 283.139 185.442 280.944 189.736 L 278.749 194.031 266.689 198.338 L 254.629 202.645 248.070 198.364 C 244.463 196.010,241.508 193.999,241.505 193.897 C 241.500 193.706,245.752 181.193,245.858 181.086 C 245.996 180.949,274.269 176.567,274.448 176.655 C 274.557 176.708,276.558 178.707,278.893 181.097 M55.667 211.083 C 55.667 212.836,56.921 220.904,57.934 225.667 C 66.520 266.024,92.755 300.790,129.813 320.917 L 132.209 322.218 132.098 323.734 C 131.770 328.251,131.672 330.283,131.572 334.711 C 131.462 339.577,131.644 345.710,132.021 349.798 C 132.125 350.924,132.168 351.887,132.118 351.938 C 131.830 352.225,120.360 346.741,114.833 343.673 C 77.524 322.965,49.226 289.169,35.910 249.417 C 34.442 245.035,32.794 239.344,32.907 239.049 C 33.101 238.542,55.374 210.339,55.513 210.425 C 55.597 210.477,55.667 210.773,55.667 211.083 M355.744 224.313 L 367.036 237.042 366.937 237.658 C 366.762 238.752,364.686 245.817,363.503 249.344 C 350.132 289.209,321.880 322.936,284.480 343.684 C 278.984 346.732,268.406 351.814,268.151 351.528 C 268.096 351.467,268.163 350.404,268.300 349.167 C 268.793 344.695,268.653 328.617,268.069 322.667 L 267.979 321.750 270.014 320.672 C 309.675 299.655,338.230 258.188,343.412 214.083 C 343.796 210.816,343.782 210.870,344.153 211.265 C 344.318 211.440,349.534 217.312,355.744 224.313 M248.167 330.663 C 248.167 331.037,246.295 337.262,245.534 339.417 C 242.874 346.953,239.598 353.649,235.745 359.425 C 233.745 362.423,234.000 362.235,231.249 362.738 C 211.822 366.292,190.533 366.447,170.757 363.179 C 168.157 362.749,167.725 362.634,167.461 362.300 C 164.435 358.470,159.861 350.140,157.349 343.881 C 155.716 339.812,152.995 331.449,153.228 331.216 C 153.264 331.181,154.911 331.642,156.889 332.240 C 185.746 340.966,219.236 340.510,246.333 331.021 C 247.894 330.475,248.167 330.421,248.167 330.663 " stroke="none" fill="#fbfbfb" fill-rule="evenodd"></path><path id="path3" d="M198.458 64.291 C 199.306 64.321,200.694 64.321,201.542 64.291 C 202.390 64.261,201.696 64.236,200.000 64.236 C 198.304 64.236,197.610 64.261,198.458 64.291 M192.708 64.448 C 192.869 64.490,193.131 64.490,193.292 64.448 C 193.452 64.406,193.321 64.372,193.000 64.372 C 192.679 64.372,192.548 64.406,192.708 64.448 M206.708 64.448 C 206.869 64.490,207.131 64.490,207.292 64.448 C 207.452 64.406,207.321 64.372,207.000 64.372 C 206.679 64.372,206.548 64.406,206.708 64.448 M317.167 73.219 C 317.167 73.248,317.410 73.491,317.708 73.760 L 318.250 74.250 317.760 73.708 C 317.304 73.203,317.167 73.090,317.167 73.219 M81.240 74.042 L 80.750 74.583 81.292 74.094 C 81.590 73.825,81.833 73.581,81.833 73.552 C 81.833 73.423,81.696 73.537,81.240 74.042 M320.667 76.583 C 321.442 77.362,322.113 78.000,322.159 78.000 C 322.205 78.000,321.608 77.362,320.833 76.583 C 320.058 75.804,319.387 75.167,319.341 75.167 C 319.295 75.167,319.892 75.804,320.667 76.583 M76.583 78.500 C 75.211 79.875,74.125 81.000,74.171 81.000 C 74.217 81.000,75.377 79.875,76.750 78.500 C 78.123 77.125,79.208 76.000,79.162 76.000 C 79.117 76.000,77.956 77.125,76.583 78.500 M324.667 80.583 C 325.442 81.362,326.113 82.000,326.159 82.000 C 326.205 82.000,325.608 81.362,324.833 80.583 C 324.058 79.804,323.387 79.167,323.341 79.167 C 323.295 79.167,323.892 79.804,324.667 80.583 M72.073 83.208 L 71.583 83.750 72.125 83.260 C 72.630 82.804,72.743 82.667,72.615 82.667 C 72.586 82.667,72.342 82.910,72.073 83.208 M327.333 83.385 C 327.333 83.414,327.577 83.658,327.875 83.927 L 328.417 84.417 327.927 83.875 C 327.471 83.370,327.333 83.257,327.333 83.385 M99.658 94.125 L 99.083 94.750 99.708 94.176 C 100.290 93.641,100.410 93.500,100.283 93.500 C 100.255 93.500,99.974 93.781,99.658 94.125 M303.167 97.583 C 304.677 99.096,305.950 100.333,305.996 100.333 C 306.042 100.333,304.844 99.096,303.333 97.583 C 301.823 96.071,300.550 94.833,300.504 94.833 C 300.458 94.833,301.656 96.071,303.167 97.583 M76.167 99.052 C 76.167 99.081,76.410 99.325,76.708 99.594 L 77.250 100.083 76.760 99.542 C 76.304 99.037,76.167 98.923,76.167 99.052 M92.658 101.125 L 92.083 101.750 92.708 101.176 C 93.290 100.641,93.410 100.500,93.283 100.500 C 93.255 100.500,92.974 100.781,92.658 101.125 M77.833 100.885 C 77.833 100.914,78.077 101.158,78.375 101.427 L 78.917 101.917 78.427 101.375 C 77.971 100.870,77.833 100.757,77.833 100.885 M81.333 104.719 C 81.333 104.748,81.577 104.991,81.875 105.260 L 82.417 105.750 81.927 105.208 C 81.471 104.703,81.333 104.590,81.333 104.719 M83.000 106.552 C 83.000 106.581,83.244 106.825,83.542 107.094 L 84.083 107.583 83.594 107.042 C 83.138 106.537,83.000 106.423,83.000 106.552 M84.667 108.385 C 84.667 108.414,84.910 108.658,85.208 108.927 L 85.750 109.417 85.260 108.875 C 84.804 108.370,84.667 108.257,84.667 108.385 M259.167 138.583 C 260.310 139.729,261.282 140.667,261.328 140.667 C 261.374 140.667,260.476 139.729,259.333 138.583 C 258.190 137.438,257.218 136.500,257.172 136.500 C 257.126 136.500,258.024 137.438,259.167 138.583 M140.496 138.625 L 139.083 140.083 140.542 138.670 C 141.896 137.358,142.076 137.167,141.955 137.167 C 141.930 137.167,141.273 137.823,140.496 138.625 M137.658 141.625 L 137.083 142.250 137.708 141.676 C 138.052 141.360,138.333 141.078,138.333 141.051 C 138.333 140.923,138.192 141.043,137.658 141.625 M250.833 141.917 C 251.144 142.237,251.436 142.500,251.482 142.500 C 251.528 142.500,251.311 142.237,251.000 141.917 C 250.689 141.596,250.397 141.333,250.351 141.333 C 250.305 141.333,250.522 141.596,250.833 141.917 M148.077 142.708 L 147.250 143.583 148.125 142.756 C 148.606 142.301,149.000 141.908,149.000 141.881 C 149.000 141.757,148.846 141.895,148.077 142.708 M144.910 145.875 L 144.083 146.750 144.958 145.923 C 145.771 145.154,145.910 145.000,145.785 145.000 C 145.759 145.000,145.365 145.394,144.910 145.875 M255.667 146.750 C 255.978 147.071,256.270 147.333,256.315 147.333 C 256.361 147.333,256.144 147.071,255.833 146.750 C 255.522 146.429,255.230 146.167,255.185 146.167 C 255.139 146.167,255.356 146.429,255.667 146.750 M273.583 158.000 C 273.726 158.275,273.879 158.500,273.925 158.500 C 273.971 158.500,273.892 158.275,273.750 158.000 C 273.608 157.725,273.454 157.500,273.408 157.500 C 273.362 157.500,273.441 157.725,273.583 158.000 M125.667 177.417 C 125.262 177.829,124.968 178.167,125.014 178.167 C 125.060 178.167,125.428 177.829,125.833 177.417 C 126.238 177.004,126.532 176.667,126.486 176.667 C 126.440 176.667,126.072 177.004,125.667 177.417 M274.500 176.713 C 274.500 176.738,275.081 177.319,275.792 178.004 L 277.083 179.250 275.838 177.958 C 274.680 176.759,274.500 176.591,274.500 176.713 M119.413 183.875 L 117.917 185.417 119.458 183.920 C 120.306 183.097,121.000 182.403,121.000 182.378 C 121.000 182.257,120.803 182.443,119.413 183.875 M333.705 188.500 C 333.705 188.821,333.740 188.952,333.782 188.792 C 333.823 188.631,333.823 188.369,333.782 188.208 C 333.740 188.048,333.705 188.179,333.705 188.500 M66.042 189.417 C 66.044 189.783,66.078 189.914,66.118 189.706 C 66.158 189.499,66.156 189.199,66.115 189.040 C 66.073 188.880,66.040 189.050,66.042 189.417 M333.904 195.583 C 333.904 197.508,333.928 198.273,333.958 197.283 C 333.987 196.292,333.987 194.717,333.958 193.783 C 333.928 192.848,333.904 193.658,333.904 195.583 M66.042 201.583 C 66.044 201.950,66.078 202.080,66.118 201.873 C 66.158 201.666,66.156 201.366,66.115 201.206 C 66.073 201.047,66.040 201.217,66.042 201.583 M333.709 202.417 C 333.711 202.783,333.745 202.914,333.785 202.706 C 333.824 202.499,333.823 202.199,333.781 202.040 C 333.739 201.880,333.707 202.050,333.709 202.417 M100.167 283.250 C 100.478 283.571,100.770 283.833,100.815 283.833 C 100.861 283.833,100.644 283.571,100.333 283.250 C 100.022 282.929,99.730 282.667,99.685 282.667 C 99.639 282.667,99.856 282.929,100.167 283.250 M297.745 285.208 L 296.750 286.250 297.792 285.255 C 298.759 284.331,298.910 284.167,298.786 284.167 C 298.761 284.167,298.292 284.635,297.745 285.208 M104.083 287.333 C 105.640 288.892,106.950 290.167,106.996 290.167 C 107.042 290.167,105.806 288.892,104.250 287.333 C 102.694 285.775,101.383 284.500,101.337 284.500 C 101.291 284.500,102.527 285.775,104.083 287.333 M309.740 288.875 L 309.250 289.417 309.792 288.927 C 310.297 288.471,310.410 288.333,310.281 288.333 C 310.252 288.333,310.009 288.577,309.740 288.875 M293.328 289.625 L 292.417 290.583 293.375 289.672 C 293.902 289.171,294.333 288.740,294.333 288.714 C 294.333 288.590,294.174 288.735,293.328 289.625 M308.491 290.292 L 307.917 290.917 308.542 290.342 C 308.885 290.026,309.167 289.745,309.167 289.717 C 309.167 289.590,309.026 289.710,308.491 290.292 M91.333 290.885 C 91.333 290.914,91.577 291.158,91.875 291.427 L 92.417 291.917 91.927 291.375 C 91.471 290.870,91.333 290.757,91.333 290.885 M108.417 291.500 C 108.775 291.867,109.105 292.167,109.151 292.167 C 109.197 292.167,108.941 291.867,108.583 291.500 C 108.225 291.133,107.895 290.833,107.849 290.833 C 107.803 290.833,108.059 291.133,108.417 291.500 M290.824 291.958 L 290.250 292.583 290.875 292.009 C 291.219 291.693,291.500 291.412,291.500 291.384 C 291.500 291.257,291.359 291.377,290.824 291.958 M306.661 292.292 L 305.750 293.250 306.708 292.339 C 307.235 291.838,307.667 291.407,307.667 291.381 C 307.667 291.257,307.507 291.401,306.661 292.292 M109.667 292.552 C 109.667 292.581,109.910 292.825,110.208 293.094 L 110.750 293.583 110.260 293.042 C 109.804 292.537,109.667 292.423,109.667 292.552 M96.083 295.833 C 97.548 297.300,98.784 298.500,98.829 298.500 C 98.875 298.500,97.715 297.300,96.250 295.833 C 94.785 294.367,93.550 293.167,93.504 293.167 C 93.458 293.167,94.619 294.367,96.083 295.833 M299.494 299.458 L 298.583 300.417 299.542 299.506 C 300.069 299.005,300.500 298.573,300.500 298.547 C 300.500 298.424,300.341 298.568,299.494 299.458 M206.667 299.230 C 206.667 299.409,207.163 300.333,207.259 300.333 C 207.304 300.333,207.218 300.090,207.066 299.792 C 206.757 299.183,206.667 299.056,206.667 299.230 M297.491 301.292 L 296.917 301.917 297.542 301.342 C 297.885 301.026,298.167 300.745,298.167 300.717 C 298.167 300.590,298.026 300.710,297.491 301.292 M179.294 308.285 C 179.501 308.324,179.801 308.323,179.960 308.281 C 180.120 308.239,179.950 308.207,179.583 308.209 C 179.217 308.211,179.086 308.245,179.294 308.285 M219.794 308.285 C 220.001 308.324,220.301 308.323,220.460 308.281 C 220.620 308.239,220.450 308.207,220.083 308.209 C 219.717 308.211,219.586 308.245,219.794 308.285 M221.627 308.285 C 221.834 308.324,222.134 308.323,222.294 308.281 C 222.453 308.239,222.283 308.207,221.917 308.209 C 221.550 308.211,221.420 308.245,221.627 308.285 M328.240 309.042 L 327.750 309.583 328.292 309.094 C 328.797 308.638,328.910 308.500,328.781 308.500 C 328.752 308.500,328.509 308.744,328.240 309.042 M70.833 308.885 C 70.833 308.914,71.077 309.158,71.375 309.427 L 71.917 309.917 71.427 309.375 C 70.971 308.870,70.833 308.757,70.833 308.885 M201.750 311.167 C 202.294 311.717,202.777 312.167,202.823 312.167 C 202.869 312.167,202.461 311.717,201.917 311.167 C 201.372 310.617,200.890 310.167,200.844 310.167 C 200.798 310.167,201.206 310.617,201.750 311.167 M197.575 311.375 L 196.917 312.083 197.625 311.425 C 198.284 310.812,198.410 310.667,198.284 310.667 C 198.257 310.667,197.938 310.985,197.575 311.375 M325.910 311.542 L 325.083 312.417 325.958 311.590 C 326.440 311.135,326.833 310.741,326.833 310.715 C 326.833 310.590,326.679 310.729,325.910 311.542 M73.833 312.083 C 74.331 312.587,74.776 313.000,74.822 313.000 C 74.868 313.000,74.498 312.587,74.000 312.083 C 73.502 311.579,73.057 311.167,73.011 311.167 C 72.966 311.167,73.335 311.579,73.833 312.083 M79.250 317.500 C 79.794 318.050,80.277 318.500,80.323 318.500 C 80.369 318.500,79.961 318.050,79.417 317.500 C 78.872 316.950,78.390 316.500,78.344 316.500 C 78.298 316.500,78.706 316.950,79.250 317.500 M319.410 318.042 L 318.583 318.917 319.458 318.090 C 320.271 317.321,320.410 317.167,320.285 317.167 C 320.259 317.167,319.865 317.560,319.410 318.042 M176.958 319.118 C 177.165 319.157,177.502 319.157,177.708 319.118 C 177.915 319.078,177.746 319.045,177.333 319.045 C 176.921 319.045,176.752 319.078,176.958 319.118 M179.627 319.118 C 179.834 319.158,180.134 319.156,180.294 319.115 C 180.453 319.073,180.283 319.040,179.917 319.042 C 179.550 319.044,179.420 319.078,179.627 319.118 M219.292 319.118 C 219.498 319.157,219.835 319.157,220.042 319.118 C 220.248 319.078,220.079 319.045,219.667 319.045 C 219.254 319.045,219.085 319.078,219.292 319.118 M221.960 319.118 C 222.168 319.158,222.468 319.156,222.627 319.115 C 222.786 319.073,222.617 319.040,222.250 319.042 C 221.883 319.044,221.753 319.078,221.960 319.118 M81.500 319.552 C 81.500 319.581,81.744 319.825,82.042 320.094 L 82.583 320.583 82.094 320.042 C 81.638 319.537,81.500 319.423,81.500 319.552 M268.042 322.250 C 268.044 322.617,268.078 322.747,268.118 322.540 C 268.158 322.332,268.156 322.032,268.115 321.873 C 268.073 321.714,268.040 321.883,268.042 322.250 M268.205 324.500 C 268.205 324.821,268.240 324.952,268.282 324.792 C 268.323 324.631,268.323 324.369,268.282 324.208 C 268.240 324.048,268.205 324.179,268.205 324.500 M131.872 325.667 C 131.872 325.987,131.906 326.119,131.948 325.958 C 131.990 325.798,131.990 325.535,131.948 325.375 C 131.906 325.215,131.872 325.346,131.872 325.667 M268.375 327.083 C 268.377 327.450,268.411 327.580,268.451 327.373 C 268.491 327.166,268.490 326.866,268.448 326.706 C 268.406 326.547,268.374 326.717,268.375 327.083 M131.712 328.333 C 131.712 328.746,131.745 328.915,131.784 328.708 C 131.824 328.502,131.824 328.165,131.784 327.958 C 131.745 327.752,131.712 327.921,131.712 328.333 M268.548 330.250 C 268.549 330.708,268.581 330.876,268.620 330.623 C 268.658 330.369,268.657 329.994,268.617 329.789 C 268.578 329.584,268.546 329.792,268.548 330.250 M131.557 332.417 C 131.558 333.150,131.587 333.429,131.622 333.037 C 131.657 332.645,131.657 332.045,131.621 331.704 C 131.585 331.363,131.557 331.683,131.557 332.417 M268.739 338.083 C 268.739 340.283,268.762 341.160,268.791 340.032 C 268.820 338.904,268.820 337.104,268.791 336.032 C 268.762 334.960,268.738 335.883,268.739 338.083 M209.208 338.282 C 209.369 338.323,209.631 338.323,209.792 338.282 C 209.952 338.240,209.821 338.205,209.500 338.205 C 209.179 338.205,209.048 338.240,209.208 338.282 M192.625 338.451 C 192.831 338.491,193.169 338.491,193.375 338.451 C 193.581 338.411,193.412 338.379,193.000 338.379 C 192.588 338.379,192.419 338.411,192.625 338.451 M205.958 338.451 C 206.165 338.491,206.502 338.491,206.708 338.451 C 206.915 338.411,206.746 338.379,206.333 338.379 C 205.921 338.379,205.752 338.411,205.958 338.451 M198.715 338.624 C 199.338 338.656,200.313 338.656,200.882 338.623 C 201.451 338.591,200.942 338.564,199.750 338.565 C 198.558 338.565,198.093 338.592,198.715 338.624 M131.556 343.000 C 131.556 343.688,131.585 343.969,131.621 343.625 C 131.657 343.281,131.657 342.719,131.621 342.375 C 131.585 342.031,131.556 342.313,131.556 343.000 M268.545 345.333 C 268.545 345.746,268.578 345.915,268.618 345.708 C 268.657 345.502,268.657 345.165,268.618 344.958 C 268.578 344.752,268.545 344.921,268.545 345.333 M131.712 346.667 C 131.712 347.079,131.745 347.248,131.784 347.042 C 131.824 346.835,131.824 346.498,131.784 346.292 C 131.745 346.085,131.712 346.254,131.712 346.667 M268.372 348.000 C 268.372 348.321,268.406 348.452,268.448 348.292 C 268.490 348.131,268.490 347.869,268.448 347.708 C 268.406 347.548,268.372 347.679,268.372 348.000 M189.208 365.282 C 189.369 365.323,189.631 365.323,189.792 365.282 C 189.952 365.240,189.821 365.205,189.500 365.205 C 189.179 365.205,189.048 365.240,189.208 365.282 M192.625 365.451 C 192.831 365.491,193.169 365.491,193.375 365.451 C 193.581 365.411,193.412 365.379,193.000 365.379 C 192.588 365.379,192.419 365.411,192.625 365.451 M206.127 365.451 C 206.334 365.491,206.634 365.490,206.794 365.448 C 206.953 365.406,206.783 365.374,206.417 365.375 C 206.050 365.377,205.920 365.411,206.127 365.451 " stroke="none" fill="#9c9c9c" fill-rule="evenodd"></path><path id="path4" d="M193.708 64.448 C 193.869 64.490,194.131 64.490,194.292 64.448 C 194.452 64.406,194.321 64.372,194.000 64.372 C 193.679 64.372,193.548 64.406,193.708 64.448 M205.708 64.448 C 205.869 64.490,206.131 64.490,206.292 64.448 C 206.452 64.406,206.321 64.372,206.000 64.372 C 205.679 64.372,205.548 64.406,205.708 64.448 M318.750 74.833 C 319.108 75.200,319.438 75.500,319.484 75.500 C 319.530 75.500,319.275 75.200,318.917 74.833 C 318.559 74.467,318.228 74.167,318.182 74.167 C 318.137 74.167,318.392 74.467,318.750 74.833 M80.000 75.250 C 79.595 75.662,79.301 76.000,79.347 76.000 C 79.393 76.000,79.762 75.662,80.167 75.250 C 80.572 74.837,80.865 74.500,80.819 74.500 C 80.774 74.500,80.405 74.837,80.000 75.250 M322.667 78.583 C 322.978 78.904,323.270 79.167,323.315 79.167 C 323.361 79.167,323.144 78.904,322.833 78.583 C 322.522 78.262,322.230 78.000,322.185 78.000 C 322.139 78.000,322.356 78.262,322.667 78.583 M197.544 80.453 C 197.797 80.491,198.172 80.490,198.377 80.451 C 198.582 80.411,198.375 80.380,197.917 80.381 C 197.458 80.382,197.291 80.415,197.544 80.453 M201.544 80.453 C 201.797 80.491,202.172 80.490,202.377 80.451 C 202.582 80.411,202.375 80.380,201.917 80.381 C 201.458 80.382,201.291 80.415,201.544 80.453 M73.333 81.917 C 72.928 82.329,72.635 82.667,72.681 82.667 C 72.726 82.667,73.095 82.329,73.500 81.917 C 73.905 81.504,74.199 81.167,74.153 81.167 C 74.107 81.167,73.738 81.504,73.333 81.917 M326.583 82.667 C 326.941 83.033,327.272 83.333,327.318 83.333 C 327.363 83.333,327.108 83.033,326.750 82.667 C 326.392 82.300,326.062 82.000,326.016 82.000 C 325.970 82.000,326.225 82.300,326.583 82.667 M297.500 92.083 C 297.811 92.404,298.103 92.667,298.149 92.667 C 298.195 92.667,297.978 92.404,297.667 92.083 C 297.356 91.763,297.064 91.500,297.018 91.500 C 296.972 91.500,297.189 91.763,297.500 92.083 M100.824 92.958 L 100.250 93.583 100.875 93.009 C 101.457 92.474,101.577 92.333,101.449 92.333 C 101.422 92.333,101.140 92.615,100.824 92.958 M299.500 93.917 C 299.998 94.421,300.443 94.833,300.489 94.833 C 300.534 94.833,300.165 94.421,299.667 93.917 C 299.169 93.412,298.724 93.000,298.678 93.000 C 298.632 93.000,299.002 93.412,299.500 93.917 M95.998 97.625 L 93.083 100.583 96.042 97.668 C 97.669 96.065,99.000 94.734,99.000 94.710 C 99.000 94.591,98.706 94.876,95.998 97.625 M73.667 96.219 C 73.667 96.248,73.910 96.491,74.208 96.760 L 74.750 97.250 74.260 96.708 C 73.804 96.203,73.667 96.090,73.667 96.219 M304.326 98.542 C 305.017 99.278,305.167 99.410,305.167 99.285 C 305.167 99.258,304.810 98.902,304.375 98.493 L 303.583 97.750 304.326 98.542 M306.750 101.167 C 307.201 101.625,307.608 102.000,307.654 102.000 C 307.700 102.000,307.368 101.625,306.917 101.167 C 306.465 100.708,306.058 100.333,306.013 100.333 C 305.967 100.333,306.299 100.708,306.750 101.167 M91.573 102.208 L 91.083 102.750 91.625 102.260 C 91.923 101.991,92.167 101.748,92.167 101.719 C 92.167 101.590,92.029 101.703,91.573 102.208 M308.500 103.083 C 308.811 103.404,309.103 103.667,309.149 103.667 C 309.195 103.667,308.978 103.404,308.667 103.083 C 308.356 102.763,308.064 102.500,308.018 102.500 C 307.972 102.500,308.189 102.763,308.500 103.083 M90.073 103.875 L 89.583 104.417 90.125 103.927 C 90.423 103.658,90.667 103.414,90.667 103.385 C 90.667 103.257,90.529 103.370,90.073 103.875 M272.833 119.552 C 272.833 119.581,273.077 119.825,273.375 120.094 L 273.917 120.583 273.427 120.042 C 272.971 119.537,272.833 119.423,272.833 119.552 M123.747 122.708 L 121.917 124.583 123.792 122.753 C 125.533 121.053,125.742 120.833,125.622 120.833 C 125.598 120.833,124.754 121.677,123.747 122.708 M278.667 125.417 C 278.978 125.737,279.270 126.000,279.315 126.000 C 279.361 126.000,279.144 125.737,278.833 125.417 C 278.522 125.096,278.230 124.833,278.185 124.833 C 278.139 124.833,278.356 125.096,278.667 125.417 M266.833 128.917 C 267.331 129.421,267.776 129.833,267.822 129.833 C 267.868 129.833,267.498 129.421,267.000 128.917 C 266.502 128.412,266.057 128.000,266.011 128.000 C 265.966 128.000,266.335 128.412,266.833 128.917 M269.417 131.500 C 269.868 131.958,270.275 132.333,270.321 132.333 C 270.367 132.333,270.035 131.958,269.583 131.500 C 269.132 131.042,268.725 130.667,268.679 130.667 C 268.633 130.667,268.965 131.042,269.417 131.500 M128.906 133.042 L 128.417 133.583 128.958 133.094 C 129.256 132.825,129.500 132.581,129.500 132.552 C 129.500 132.423,129.362 132.537,128.906 133.042 M140.750 138.500 C 139.377 139.875,138.292 141.000,138.338 141.000 C 138.383 141.000,139.544 139.875,140.917 138.500 C 142.289 137.125,143.375 136.000,143.329 136.000 C 143.283 136.000,142.123 137.125,140.750 138.500 M261.333 140.917 C 261.644 141.237,261.936 141.500,261.982 141.500 C 262.028 141.500,261.811 141.237,261.500 140.917 C 261.189 140.596,260.897 140.333,260.851 140.333 C 260.805 140.333,261.022 140.596,261.333 140.917 M137.240 142.208 L 136.750 142.750 137.292 142.260 C 137.590 141.991,137.833 141.748,137.833 141.719 C 137.833 141.590,137.696 141.703,137.240 142.208 M252.167 143.083 C 252.665 143.587,253.109 144.000,253.155 144.000 C 253.201 144.000,252.831 143.587,252.333 143.083 C 251.835 142.579,251.391 142.167,251.345 142.167 C 251.299 142.167,251.669 142.579,252.167 143.083 M146.413 144.208 L 145.083 145.583 146.458 144.254 C 147.735 143.019,147.909 142.833,147.788 142.833 C 147.763 142.833,147.144 143.452,146.413 144.208 M254.583 145.500 C 255.128 146.050,255.610 146.500,255.656 146.500 C 255.702 146.500,255.294 146.050,254.750 145.500 C 254.206 144.950,253.723 144.500,253.677 144.500 C 253.631 144.500,254.039 144.950,254.583 145.500 M285.702 154.410 C 286.179 155.369,286.596 156.126,286.628 156.094 C 286.702 156.020,285.027 152.667,284.916 152.667 C 284.872 152.667,285.225 153.451,285.702 154.410 M123.498 179.792 L 120.917 182.417 123.542 179.835 C 124.985 178.416,126.167 177.234,126.167 177.210 C 126.167 177.091,125.896 177.353,123.498 179.792 M278.917 181.333 C 281.115 183.533,282.952 185.333,282.997 185.333 C 283.043 185.333,281.282 183.533,279.083 181.333 C 276.885 179.133,275.048 177.333,275.003 177.333 C 274.957 177.333,276.718 179.133,278.917 181.333 M333.712 189.667 C 333.712 190.079,333.745 190.248,333.784 190.042 C 333.824 189.835,333.824 189.498,333.784 189.292 C 333.745 189.085,333.712 189.254,333.712 189.667 M66.042 190.583 C 66.044 190.950,66.078 191.080,66.118 190.873 C 66.158 190.666,66.156 190.366,66.115 190.206 C 66.073 190.047,66.040 190.217,66.042 190.583 M306.372 191.167 C 306.372 191.487,306.406 191.619,306.448 191.458 C 306.490 191.298,306.490 191.035,306.448 190.875 C 306.406 190.715,306.372 190.846,306.372 191.167 M295.372 191.667 C 295.372 191.987,295.406 192.119,295.448 191.958 C 295.490 191.798,295.490 191.535,295.448 191.375 C 295.406 191.215,295.372 191.346,295.372 191.667 M317.381 192.583 C 317.382 193.042,317.415 193.209,317.453 192.956 C 317.491 192.703,317.490 192.328,317.451 192.123 C 317.411 191.918,317.380 192.125,317.381 192.583 M104.385 193.583 C 104.386 194.133,104.417 194.338,104.454 194.039 C 104.491 193.739,104.490 193.289,104.452 193.039 C 104.414 192.788,104.384 193.033,104.385 193.583 M93.389 195.667 C 93.389 196.354,93.419 196.635,93.455 196.292 C 93.491 195.948,93.491 195.385,93.455 195.042 C 93.419 194.698,93.389 194.979,93.389 195.667 M104.385 197.750 C 104.386 198.300,104.417 198.505,104.454 198.205 C 104.491 197.906,104.490 197.456,104.452 197.205 C 104.414 196.955,104.384 197.200,104.385 197.750 M317.383 198.500 C 317.383 199.004,317.415 199.210,317.453 198.958 C 317.491 198.706,317.491 198.294,317.453 198.042 C 317.415 197.790,317.383 197.996,317.383 198.500 M189.500 199.250 C 189.811 199.571,190.103 199.833,190.149 199.833 C 190.195 199.833,189.978 199.571,189.667 199.250 C 189.356 198.929,189.064 198.667,189.018 198.667 C 188.972 198.667,189.189 198.929,189.500 199.250 M295.372 199.667 C 295.372 199.987,295.406 200.119,295.448 199.958 C 295.490 199.798,295.490 199.535,295.448 199.375 C 295.406 199.215,295.372 199.346,295.372 199.667 M66.042 200.417 C 66.044 200.783,66.078 200.914,66.118 200.706 C 66.158 200.499,66.156 200.199,66.115 200.040 C 66.073 199.880,66.040 200.050,66.042 200.417 M333.709 201.250 C 333.711 201.617,333.745 201.747,333.785 201.540 C 333.824 201.332,333.823 201.032,333.781 200.873 C 333.739 200.714,333.707 200.883,333.709 201.250 M119.885 207.291 C 121.059 207.320,122.934 207.320,124.051 207.291 C 125.169 207.262,124.208 207.239,121.917 207.239 C 119.625 207.239,118.711 207.263,119.885 207.291 M277.825 207.290 C 280.816 207.326,281.940 207.394,282.046 207.545 C 282.152 207.694,282.173 207.682,282.124 207.500 C 282.066 207.286,281.450 207.249,277.903 207.245 L 273.750 207.241 277.825 207.290 M283.708 256.948 C 283.869 256.990,284.131 256.990,284.292 256.948 C 284.452 256.906,284.321 256.872,284.000 256.872 C 283.679 256.872,283.548 256.906,283.708 256.948 M267.996 261.292 L 266.583 262.750 268.042 261.337 C 268.844 260.560,269.500 259.904,269.500 259.879 C 269.500 259.757,269.309 259.937,267.996 261.292 M133.833 263.219 C 133.833 263.248,134.077 263.491,134.375 263.760 L 134.917 264.250 134.427 263.708 C 133.971 263.203,133.833 263.090,133.833 263.219 M277.500 267.083 C 277.095 267.496,276.801 267.833,276.847 267.833 C 276.893 267.833,277.262 267.496,277.667 267.083 C 278.072 266.671,278.365 266.333,278.319 266.333 C 278.274 266.333,277.905 266.671,277.500 267.083 M123.750 268.667 C 124.663 269.583,125.448 270.333,125.494 270.333 C 125.540 270.333,124.830 269.583,123.917 268.667 C 123.003 267.750,122.219 267.000,122.173 267.000 C 122.127 267.000,122.837 267.750,123.750 268.667 M274.411 270.208 L 273.417 271.250 274.458 270.255 C 275.031 269.708,275.500 269.239,275.500 269.214 C 275.500 269.090,275.336 269.241,274.411 270.208 M286.740 273.042 L 286.250 273.583 286.792 273.094 C 287.297 272.638,287.410 272.500,287.281 272.500 C 287.252 272.500,287.009 272.744,286.740 273.042 M113.660 273.708 C 114.068 274.144,114.425 274.500,114.451 274.500 C 114.577 274.500,114.444 274.350,113.708 273.660 L 112.917 272.917 113.660 273.708 M118.160 278.208 C 118.850 278.944,119.000 279.077,119.000 278.951 C 119.000 278.925,118.644 278.568,118.208 278.160 L 117.417 277.417 118.160 278.208 M298.909 283.875 L 298.250 284.583 298.958 283.925 C 299.617 283.312,299.743 283.167,299.617 283.167 C 299.590 283.167,299.271 283.485,298.909 283.875 M101.583 284.667 C 102.035 285.125,102.442 285.500,102.487 285.500 C 102.533 285.500,102.201 285.125,101.750 284.667 C 101.299 284.208,100.892 283.833,100.846 283.833 C 100.800 283.833,101.132 284.208,101.583 284.667 M295.500 287.417 C 294.817 288.104,294.296 288.667,294.342 288.667 C 294.388 288.667,294.984 288.104,295.667 287.417 C 296.350 286.729,296.871 286.167,296.825 286.167 C 296.779 286.167,296.183 286.729,295.500 287.417 M106.833 289.917 C 107.331 290.421,107.776 290.833,107.822 290.833 C 107.868 290.833,107.498 290.421,107.000 289.917 C 106.502 289.412,106.057 289.000,106.011 289.000 C 105.966 289.000,106.335 289.412,106.833 289.917 M90.333 289.885 C 90.333 289.914,90.577 290.158,90.875 290.427 L 91.417 290.917 90.927 290.375 C 90.471 289.870,90.333 289.757,90.333 289.885 M292.075 290.708 L 291.417 291.417 292.125 290.758 C 292.784 290.145,292.910 290.000,292.784 290.000 C 292.757 290.000,292.438 290.319,292.075 290.708 M92.583 292.333 C 93.035 292.792,93.442 293.167,93.487 293.167 C 93.533 293.167,93.201 292.792,92.750 292.333 C 92.299 291.875,91.892 291.500,91.846 291.500 C 91.800 291.500,92.132 291.875,92.583 292.333 M303.083 296.000 C 301.160 297.925,299.624 299.500,299.670 299.500 C 299.715 299.500,301.327 297.925,303.250 296.000 C 305.173 294.075,306.710 292.500,306.664 292.500 C 306.618 292.500,305.007 294.075,303.083 296.000 M99.667 299.417 C 100.165 299.921,100.609 300.333,100.655 300.333 C 100.701 300.333,100.331 299.921,99.833 299.417 C 99.335 298.912,98.891 298.500,98.845 298.500 C 98.799 298.500,99.169 298.912,99.667 299.417 M298.073 300.875 L 297.583 301.417 298.125 300.927 C 298.630 300.471,298.743 300.333,298.615 300.333 C 298.586 300.333,298.342 300.577,298.073 300.875 M101.750 301.333 C 102.108 301.700,102.438 302.000,102.484 302.000 C 102.530 302.000,102.275 301.700,101.917 301.333 C 101.559 300.967,101.228 300.667,101.182 300.667 C 101.137 300.667,101.392 300.967,101.750 301.333 M327.158 310.125 L 326.583 310.750 327.208 310.176 C 327.552 309.860,327.833 309.578,327.833 309.551 C 327.833 309.423,327.692 309.543,327.158 310.125 M72.333 310.417 C 72.644 310.737,72.936 311.000,72.982 311.000 C 73.028 311.000,72.811 310.737,72.500 310.417 C 72.189 310.096,71.897 309.833,71.851 309.833 C 71.805 309.833,72.022 310.096,72.333 310.417 M198.406 310.375 L 197.917 310.917 198.458 310.427 C 198.963 309.971,199.077 309.833,198.948 309.833 C 198.919 309.833,198.675 310.077,198.406 310.375 M322.665 314.792 L 320.250 317.250 322.708 314.835 C 324.992 312.592,325.242 312.333,325.123 312.333 C 325.099 312.333,323.992 313.440,322.665 314.792 M76.497 314.708 C 78.120 316.372,78.333 316.576,78.333 316.455 C 78.333 316.431,77.527 315.625,76.542 314.664 L 74.750 312.917 76.497 314.708 M80.833 318.917 C 81.144 319.237,81.436 319.500,81.482 319.500 C 81.528 319.500,81.311 319.237,81.000 318.917 C 80.689 318.596,80.397 318.333,80.351 318.333 C 80.305 318.333,80.522 318.596,80.833 318.917 M317.991 319.292 L 317.417 319.917 318.042 319.342 C 318.385 319.026,318.667 318.745,318.667 318.717 C 318.667 318.590,318.526 318.710,317.991 319.292 M178.292 319.118 C 178.498 319.157,178.835 319.157,179.042 319.118 C 179.248 319.078,179.079 319.045,178.667 319.045 C 178.254 319.045,178.085 319.078,178.292 319.118 M220.625 319.118 C 220.831 319.157,221.169 319.157,221.375 319.118 C 221.581 319.078,221.412 319.045,221.000 319.045 C 220.588 319.045,220.419 319.078,220.625 319.118 M132.039 322.667 C 132.039 322.987,132.073 323.119,132.115 322.958 C 132.157 322.798,132.157 322.535,132.115 322.375 C 132.073 322.215,132.039 322.346,132.039 322.667 M268.209 323.417 C 268.211 323.783,268.245 323.914,268.285 323.706 C 268.324 323.499,268.323 323.199,268.281 323.040 C 268.239 322.880,268.207 323.050,268.209 323.417 M131.875 324.583 C 131.877 324.950,131.911 325.080,131.951 324.873 C 131.991 324.666,131.990 324.366,131.948 324.206 C 131.906 324.047,131.874 324.217,131.875 324.583 M268.381 325.750 C 268.382 326.208,268.415 326.376,268.453 326.123 C 268.491 325.869,268.490 325.494,268.451 325.289 C 268.411 325.084,268.380 325.292,268.381 325.750 M131.712 327.000 C 131.712 327.412,131.745 327.581,131.784 327.375 C 131.824 327.169,131.824 326.831,131.784 326.625 C 131.745 326.419,131.712 326.587,131.712 327.000 M268.553 328.500 C 268.553 329.096,268.584 329.340,268.621 329.042 C 268.658 328.744,268.658 328.256,268.621 327.958 C 268.584 327.660,268.553 327.904,268.553 328.500 M131.553 330.167 C 131.553 330.762,131.584 331.006,131.621 330.708 C 131.658 330.410,131.658 329.923,131.621 329.625 C 131.584 329.327,131.553 329.571,131.553 330.167 M268.728 332.583 C 268.728 333.500,268.756 333.854,268.790 333.369 C 268.824 332.885,268.823 332.135,268.789 331.703 C 268.755 331.270,268.727 331.667,268.728 332.583 M131.405 337.667 C 131.405 339.821,131.429 340.702,131.458 339.625 C 131.487 338.548,131.487 336.785,131.458 335.708 C 131.429 334.631,131.405 335.512,131.405 337.667 M191.542 338.448 C 191.702 338.490,191.965 338.490,192.125 338.448 C 192.285 338.406,192.154 338.372,191.833 338.372 C 191.512 338.372,191.381 338.406,191.542 338.448 M207.208 338.448 C 207.369 338.490,207.631 338.490,207.792 338.448 C 207.952 338.406,207.821 338.372,207.500 338.372 C 207.179 338.372,207.048 338.406,207.208 338.448 M195.955 338.620 C 196.250 338.657,196.775 338.658,197.121 338.622 C 197.467 338.586,197.225 338.555,196.583 338.555 C 195.942 338.554,195.659 338.583,195.955 338.620 M202.288 338.620 C 202.584 338.657,203.109 338.658,203.455 338.622 C 203.800 338.586,203.558 338.555,202.917 338.555 C 202.275 338.554,201.992 338.583,202.288 338.620 M268.725 343.333 C 268.725 344.113,268.754 344.431,268.789 344.042 C 268.824 343.652,268.824 343.015,268.789 342.625 C 268.754 342.235,268.725 342.554,268.725 343.333 M131.550 345.000 C 131.550 345.504,131.581 345.710,131.619 345.458 C 131.658 345.206,131.658 344.794,131.619 344.542 C 131.581 344.290,131.550 344.496,131.550 345.000 M268.548 346.750 C 268.549 347.208,268.581 347.376,268.620 347.123 C 268.658 346.869,268.657 346.494,268.617 346.289 C 268.578 346.084,268.546 346.292,268.548 346.750 M131.709 347.917 C 131.711 348.283,131.745 348.414,131.785 348.206 C 131.824 347.999,131.823 347.699,131.781 347.540 C 131.739 347.380,131.707 347.550,131.709 347.917 M268.372 349.000 C 268.372 349.321,268.406 349.452,268.448 349.292 C 268.490 349.131,268.490 348.869,268.448 348.708 C 268.406 348.548,268.372 348.679,268.372 349.000 M131.872 350.000 C 131.872 350.321,131.906 350.452,131.948 350.292 C 131.990 350.131,131.990 349.869,131.948 349.708 C 131.906 349.548,131.872 349.679,131.872 350.000 M194.044 365.453 C 194.297 365.491,194.672 365.490,194.877 365.451 C 195.082 365.411,194.875 365.380,194.417 365.381 C 193.958 365.382,193.791 365.415,194.044 365.453 M204.711 365.453 C 204.964 365.491,205.339 365.490,205.544 365.451 C 205.749 365.411,205.542 365.380,205.083 365.381 C 204.625 365.382,204.457 365.415,204.711 365.453 " stroke="none" fill="#8c8c8b" fill-rule="evenodd"></path></g></svg>